<?xml version="1.0" standalone="no"?>
<!DOCTYPE svg PUBLIC "-//W3C//DTD SVG 20010904//EN"
 "http://www.w3.org/TR/2001/REC-SVG-20010904/DTD/svg10.dtd">
<svg version="1.0" xmlns="http://www.w3.org/2000/svg"
 width="330.000000pt" height="150.000000pt" viewBox="0 0 330.000000 150.000000"
 preserveAspectRatio="xMidYMid meet">
<metadata>
Created by potrace 1.16, written by Peter Selinger 2001-2019
</metadata>
<g transform="translate(0.000000,150.000000) scale(0.100000,-0.100000)"
fill="#000000" stroke="none">
<path d="M787 1198 c-26 -34 -50 -98 -62 -161 -4 -20 -10 -37 -14 -37 -3 0
-35 9 -69 20 -84 26 -156 26 -182 0 -21 -21 -25 -46 -11 -69 11 -17 23 1 15
23 -18 48 68 60 180 26 l66 -21 0 -39 c0 -57 -13 -83 -59 -114 -40 -28 -42
-28 -61 -11 -13 12 -17 25 -14 44 7 33 -16 61 -50 61 -29 0 -46 -18 -46 -50 0
-33 17 -50 50 -50 15 0 35 -9 44 -19 17 -19 16 -21 -24 -57 -90 -82 -127 -169
-85 -200 27 -20 110 -17 185 6 36 11 66 20 66 20 1 0 5 -17 9 -37 29 -155 104
-235 160 -173 22 24 4 27 -30 4 -23 -15 -25 -14 -47 9 -27 29 -56 104 -64 167
l-5 45 50 22 51 22 50 -22 c60 -27 68 -58 20 -85 -38 -21 -46 -46 -26 -77 22
-33 60 -33 82 0 15 23 15 27 0 50 -20 31 -12 79 13 72 125 -40 193 -47 229
-21 46 32 14 114 -77 197 -23 20 -41 39 -41 42 0 3 18 22 41 42 46 42 93 107
102 142 6 26 -30 71 -58 71 -24 0 -17 -17 10 -24 28 -7 34 -40 14 -79 -13 -25
-120 -137 -131 -137 -4 0 -28 14 -53 32 -41 29 -45 35 -45 74 0 23 -3 49 -6
57 -8 22 44 32 65 12 23 -20 54 -19 74 3 22 24 21 45 -1 65 -27 25 -54 21 -84
-13 -40 -46 -53 -39 -72 36 -29 113 -62 164 -107 164 -20 0 -35 -9 -52 -32z
m98 -21 c19 -30 41 -92 50 -144 l7 -42 -51 -26 -51 -25 -51 26 -51 26 6 41
c11 68 35 133 61 161 21 22 28 25 45 16 11 -6 27 -21 35 -33z m15 -290 l55
-33 0 -69 0 -69 -57 -34 -57 -34 -61 33 -60 34 0 70 0 70 58 32 c31 18 59 33
62 33 3 0 30 -15 60 -33z m-246 -147 c43 -29 56 -57 56 -127 0 -47 -217 -84
-243 -42 -16 26 10 76 75 141 32 32 61 58 64 58 3 0 25 -13 48 -30z m484 -34
c69 -72 88 -107 72 -137 -17 -30 -117 -24 -212 13 -26 10 -28 15 -28 64 0 51
1 54 46 89 26 19 50 35 54 35 4 0 34 -29 68 -64z"/>
<path d="M1670 806 c0 -150 2 -176 15 -176 13 0 15 23 15 145 0 80 4 145 8
145 5 0 37 -65 71 -145 35 -80 69 -145 76 -145 7 0 41 65 75 145 34 80 66 145
71 145 5 0 9 -65 9 -145 0 -122 2 -145 15 -145 13 0 15 26 15 176 l0 175 -27
-3 c-25 -3 -33 -16 -88 -145 -33 -79 -64 -141 -69 -140 -5 2 -36 66 -70 142
-56 127 -64 140 -89 143 l-27 3 0 -175z"/>
<path d="M2150 805 c0 -149 2 -175 15 -175 13 0 15 23 15 145 0 80 3 145 8
145 4 -1 55 -66 115 -145 59 -80 114 -145 122 -145 13 0 15 27 15 175 0 147
-2 175 -15 175 -12 0 -15 -25 -17 -142 l-3 -143 -109 143 c-71 91 -116 142
-128 142 -17 0 -18 -12 -18 -175z"/>
<path d="M2560 805 c0 -149 2 -175 15 -175 13 0 15 24 15 160 l0 160 68 0 c54
0 72 -4 85 -18 38 -42 6 -107 -63 -128 -22 -7 -27 -13 -21 -23 8 -12 16 -12
56 3 74 29 103 92 70 155 -19 38 -31 41 -136 41 l-89 0 0 -175z"/>
</g>
</svg>
