<?xml version="1.0" standalone="no"?>
<!DOCTYPE svg PUBLIC "-//W3C//DTD SVG 20010904//EN"
 "http://www.w3.org/TR/2001/REC-SVG-20010904/DTD/svg10.dtd">
<svg version="1.0" xmlns="http://www.w3.org/2000/svg"
 width="94.000000pt" height="100.000000pt" viewBox="0 0 94.000000 100.000000"
 preserveAspectRatio="xMidYMid meet">
<metadata>
Created by potrace 1.16, written by Peter Selinger 2001-2019
</metadata>
<g transform="translate(0.000000,100.000000) scale(0.100000,-0.100000)"
fill="#000000" stroke="none">
<path d="M407 898 c-26 -34 -50 -98 -62 -161 -4 -20 -10 -37 -14 -37 -3 0 -35
9 -69 20 -84 26 -156 26 -182 0 -21 -21 -25 -46 -11 -69 11 -17 23 1 15 23
-18 48 68 60 180 26 l66 -21 0 -39 c0 -57 -13 -83 -59 -114 -40 -28 -42 -28
-61 -11 -13 12 -17 25 -14 44 7 33 -16 61 -50 61 -29 0 -46 -18 -46 -50 0 -33
17 -50 50 -50 15 0 35 -9 44 -19 17 -19 16 -21 -24 -57 -90 -82 -127 -169 -85
-200 27 -20 110 -17 185 6 36 11 66 20 66 20 1 0 5 -17 9 -37 29 -155 104
-235 160 -173 22 24 4 27 -30 4 -23 -15 -25 -14 -47 9 -27 29 -56 104 -64 167
l-5 45 50 22 51 22 50 -22 c60 -27 68 -58 20 -85 -38 -21 -46 -46 -26 -77 22
-33 60 -33 82 0 15 23 15 27 0 50 -20 31 -12 79 13 72 125 -40 193 -47 229
-21 46 32 14 114 -77 197 -23 20 -41 39 -41 42 0 3 18 22 41 42 46 42 93 107
102 142 6 26 -30 71 -58 71 -24 0 -17 -17 10 -24 28 -7 34 -40 14 -79 -13 -25
-120 -137 -131 -137 -4 0 -28 14 -53 32 -41 29 -45 35 -45 74 0 23 -3 49 -6
57 -8 22 44 32 65 12 23 -20 54 -19 74 3 22 24 21 45 -1 65 -27 25 -54 21 -84
-13 -40 -46 -53 -39 -72 36 -29 113 -62 164 -107 164 -20 0 -35 -9 -52 -32z
m98 -21 c19 -30 41 -92 50 -144 l7 -42 -51 -26 -51 -25 -51 26 -51 26 6 41
c11 68 35 133 61 161 21 22 28 25 45 16 11 -6 27 -21 35 -33z m15 -290 l55
-33 0 -69 0 -69 -57 -34 -57 -34 -61 33 -60 34 0 70 0 70 58 32 c31 18 59 33
62 33 3 0 30 -15 60 -33z m-246 -147 c43 -29 56 -57 56 -127 0 -47 -217 -84
-243 -42 -16 26 10 76 75 141 32 32 61 58 64 58 3 0 25 -13 48 -30z m484 -34
c69 -72 88 -107 72 -137 -17 -30 -117 -24 -212 13 -26 10 -28 15 -28 64 0 51
1 54 46 89 26 19 50 35 54 35 4 0 34 -29 68 -64z"/>
</g>
</svg>
